HIERARCHY
ROOT mixamorig:Hips
{
	OFFSET 0.000000 201.639420 0.000000
	CHANNELS 6 Xposition Yposition Zposition Xrotation Yrotation Zrotation
	JOINT mixamorig:Spine
	{
		OFFSET 0.006200 19.524994 -2.481800
		CHANNELS 3 Xrotation Yrotation Zrotation
		JOINT mixamorig:Spine1
		{
			OFFSET -0.000900 22.835007 -2.825400
			CHANNELS 3 Xrotation Yrotation Zrotation
			JOINT mixamorig:Spine2
			{
				OFFSET -0.020600 26.552490 -3.193300
				CHANNELS 3 Xrotation Yrotation Zrotation
				JOINT mixamorig:Neck
				{
					OFFSET -0.060000 30.701813 1.352200
					CHANNELS 3 Xrotation Yrotation Zrotation
					JOINT mixamorig:Head
					{
						OFFSET -0.087200 22.547607 3.670900
						CHANNELS 3 Xrotation Yrotation Zrotation
						JOINT mixamorig:HeadTop_End
						{
							OFFSET -0.830600 40.355194 7.893500
							CHANNELS 3 Xrotation Yrotation Zrotation
							End Site
							{
								OFFSET 0.000000 30.592346 0.000000
							}
						}
						JOINT mixamorig:RightEye
						{
							OFFSET -6.302100 18.118591 16.197100
							CHANNELS 3 Xrotation Yrotation Zrotation
							End Site
							{
								OFFSET 0.000000 30.592346 0.000000
							}
						}
						JOINT mixamorig:LeftEye
						{
							OFFSET 6.741500 18.382690 16.401899
							CHANNELS 3 Xrotation Yrotation Zrotation
							End Site
							{
								OFFSET 0.000000 30.592346 0.000000
							}
						}
					}
				}
				JOINT mixamorig:LeftShoulder
				{
					OFFSET 11.924900 18.230499 1.425400
					CHANNELS 3 Xrotation Yrotation Zrotation
					JOINT mixamorig:LeftArm
					{
						OFFSET 25.435989 -0.697632 -5.229300
						CHANNELS 3 Xrotation Yrotation Zrotation
						JOINT mixamorig:LeftForeArm
						{
							OFFSET 54.684776 0.000000 0.000000
							CHANNELS 3 Xrotation Yrotation Zrotation
							JOINT mixamorig:LeftHand
							{
								OFFSET 55.098175 0.000000 0.000000
								CHANNELS 3 Xrotation Yrotation Zrotation
								JOINT mixamorig:LeftHandMiddle1
								{
									OFFSET 23.369751 0.000000 0.000000
									CHANNELS 3 Xrotation Yrotation Zrotation
									JOINT mixamorig:LeftHandMiddle2
									{
										OFFSET 6.378677 0.000000 0.000000
										CHANNELS 3 Xrotation Yrotation Zrotation
										JOINT mixamorig:LeftHandMiddle3
										{
											OFFSET 6.148331 0.000000 0.000000
											CHANNELS 3 Xrotation Yrotation Zrotation
											JOINT mixamorig:LeftHandMiddle4
											{
												OFFSET 6.582504 0.000000 0.000000
												CHANNELS 3 Xrotation Yrotation Zrotation
												End Site
												{
													OFFSET -1.168900 6.395691 1.028606
												}
											}
										}
									}
								}
								JOINT mixamorig:LeftHandThumb1
								{
									OFFSET 7.235672 -3.848206 5.434273
									CHANNELS 3 Xrotation Yrotation Zrotation
									JOINT mixamorig:LeftHandThumb2
									{
										OFFSET 6.568451 -3.792297 3.792300
										CHANNELS 3 Xrotation Yrotation Zrotation
										JOINT mixamorig:LeftHandThumb3
										{
											OFFSET 6.063080 -3.500519 3.500518
											CHANNELS 3 Xrotation Yrotation Zrotation
											JOINT mixamorig:LeftHandThumb4
											{
												OFFSET 4.793182 -2.767334 2.767349
												CHANNELS 3 Xrotation Yrotation Zrotation
												End Site
												{
													OFFSET 0.101639 6.054260 1.275483
												}
											}
										}
									}
								}
								JOINT mixamorig:LeftHandIndex1
								{
									OFFSET 23.101074 -0.309540 4.992809
									CHANNELS 3 Xrotation Yrotation Zrotation
									JOINT mixamorig:LeftHandIndex2
									{
										OFFSET 6.226883 0.000000 0.000000
										CHANNELS 3 Xrotation Yrotation Zrotation
										JOINT mixamorig:LeftHandIndex3
										{
											OFFSET 6.094330 0.000000 0.000000
											CHANNELS 3 Xrotation Yrotation Zrotation
											JOINT mixamorig:LeftHandIndex4
											{
												OFFSET 5.482605 0.000000 0.000000
												CHANNELS 3 Xrotation Yrotation Zrotation
												End Site
												{
													OFFSET -1.427902 5.233032 0.797164
												}
											}
										}
									}
								}
								JOINT mixamorig:LeftHandRing1
								{
									OFFSET 22.299240 0.021149 -3.964172
									CHANNELS 3 Xrotation Yrotation Zrotation
									JOINT mixamorig:LeftHandRing2
									{
										OFFSET 6.321869 0.000000 0.000000
										CHANNELS 3 Xrotation Yrotation Zrotation
										JOINT mixamorig:LeftHandRing3
										{
											OFFSET 5.899796 0.000000 0.000000
											CHANNELS 3 Xrotation Yrotation Zrotation
											JOINT mixamorig:LeftHandRing4
											{
												OFFSET 6.517899 0.000000 0.000000
												CHANNELS 3 Xrotation Yrotation Zrotation
												End Site
												{
													OFFSET -1.637299 6.232208 0.980890
												}
											}
										}
									}
								}
								JOINT mixamorig:LeftHandPinky1
								{
									OFFSET 20.463791 -0.302338 -8.562233
									CHANNELS 3 Xrotation Yrotation Zrotation
									JOINT mixamorig:LeftHandPinky2
									{
										OFFSET 6.908646 0.000000 0.000000
										CHANNELS 3 Xrotation Yrotation Zrotation
										JOINT mixamorig:LeftHandPinky3
										{
											OFFSET 4.622849 0.000000 0.000000
											CHANNELS 3 Xrotation Yrotation Zrotation
											JOINT mixamorig:LeftHandPinky4
											{
												OFFSET 5.216080 0.000000 0.000000
												CHANNELS 3 Xrotation Yrotation Zrotation
												End Site
												{
													OFFSET -0.606308 5.116241 0.814926
												}
											}
										}
									}
								}
							}
						}
					}
				}
				JOINT mixamorig:RightShoulder
				{
					OFFSET -12.001300 18.284088 1.348900
					CHANNELS 3 Xrotation Yrotation Zrotation
					JOINT mixamorig:RightArm
					{
						OFFSET -25.308500 -0.751312 -5.164599
						CHANNELS 3 Xrotation Yrotation Zrotation
						JOINT mixamorig:RightForeArm
						{
							OFFSET -54.684429 0.000000 0.000000
							CHANNELS 3 Xrotation Yrotation Zrotation
							JOINT mixamorig:RightHand
							{
								OFFSET -55.150291 0.000000 0.000000
								CHANNELS 3 Xrotation Yrotation Zrotation
								JOINT mixamorig:RightHandMiddle1
								{
									OFFSET -23.317566 0.000000 0.000000
									CHANNELS 3 Xrotation Yrotation Zrotation
									JOINT mixamorig:RightHandMiddle2
									{
										OFFSET -6.378403 0.000000 0.000000
										CHANNELS 3 Xrotation Yrotation Zrotation
										JOINT mixamorig:RightHandMiddle3
										{
											OFFSET -6.148193 0.000000 0.000000
											CHANNELS 3 Xrotation Yrotation Zrotation
											JOINT mixamorig:RightHandMiddle4
											{
												OFFSET -6.583389 0.000000 0.000000
												CHANNELS 3 Xrotation Yrotation Zrotation
												End Site
												{
													OFFSET 1.171692 6.395905 1.029786
												}
											}
										}
									}
								}
								JOINT mixamorig:RightHandThumb1
								{
									OFFSET -7.190521 -3.860474 5.435846
									CHANNELS 3 Xrotation Yrotation Zrotation
									JOINT mixamorig:RightHandThumb2
									{
										OFFSET -6.567429 -3.791718 3.791708
										CHANNELS 3 Xrotation Yrotation Zrotation
										JOINT mixamorig:RightHandThumb3
										{
											OFFSET -6.062469 -3.500153 3.500166
											CHANNELS 3 Xrotation Yrotation Zrotation
											JOINT mixamorig:RightHandThumb4
											{
												OFFSET -4.792618 -2.767029 2.767022
												CHANNELS 3 Xrotation Yrotation Zrotation
												End Site
												{
													OFFSET -0.100327 6.053253 1.276754
												}
											}
										}
									}
								}
								JOINT mixamorig:RightHandIndex1
								{
									OFFSET -23.048981 -0.310791 4.992554
									CHANNELS 3 Xrotation Yrotation Zrotation
									JOINT mixamorig:RightHandIndex2
									{
										OFFSET -6.227539 0.000000 0.000000
										CHANNELS 3 Xrotation Yrotation Zrotation
										JOINT mixamorig:RightHandIndex3
										{
											OFFSET -6.095047 0.000000 0.000000
											CHANNELS 3 Xrotation Yrotation Zrotation
											JOINT mixamorig:RightHandIndex4
											{
												OFFSET -5.484772 0.000000 0.000000
												CHANNELS 3 Xrotation Yrotation Zrotation
												End Site
												{
													OFFSET 1.420593 5.237305 0.797056
												}
											}
										}
									}
								}
								JOINT mixamorig:RightHandRing1
								{
									OFFSET -22.246323 0.020569 -3.963762
									CHANNELS 3 Xrotation Yrotation Zrotation
									JOINT mixamorig:RightHandRing2
									{
										OFFSET -6.322128 0.000000 0.000000
										CHANNELS 3 Xrotation Yrotation Zrotation
										JOINT mixamorig:RightHandRing3
										{
											OFFSET -5.900024 0.000000 0.000000
											CHANNELS 3 Xrotation Yrotation Zrotation
											JOINT mixamorig:RightHandRing4
											{
												OFFSET -6.518356 0.000000 0.000000
												CHANNELS 3 Xrotation Yrotation Zrotation
												End Site
												{
													OFFSET 1.636398 6.232697 0.982186
												}
											}
										}
									}
								}
								JOINT mixamorig:RightHandPinky1
								{
									OFFSET -20.411011 -0.303314 -8.561701
									CHANNELS 3 Xrotation Yrotation Zrotation
									JOINT mixamorig:RightHandPinky2
									{
										OFFSET -6.907349 0.000000 0.000000
										CHANNELS 3 Xrotation Yrotation Zrotation
										JOINT mixamorig:RightHandPinky3
										{
											OFFSET -4.623840 0.000000 0.000000
											CHANNELS 3 Xrotation Yrotation Zrotation
											JOINT mixamorig:RightHandPinky4
											{
												OFFSET -5.218353 0.000000 0.000000
												CHANNELS 3 Xrotation Yrotation Zrotation
												End Site
												{
													OFFSET 0.602097 5.118835 0.816273
												}
											}
										}
									}
								}
							}
						}
					}
				}
			}
		}
	}
	JOINT mixamorig:LeftUpLeg
	{
		OFFSET 18.168400 -13.561905 -0.039000
		CHANNELS 3 Xrotation Yrotation Zrotation
		JOINT mixamorig:LeftLeg
		{
			OFFSET 0.577358 -80.825211 -3.695000
			CHANNELS 3 Xrotation Yrotation Zrotation
			JOINT mixamorig:LeftFoot
			{
				OFFSET -0.577356 -83.370262 -6.520700
				CHANNELS 3 Xrotation Yrotation Zrotation
				JOINT mixamorig:LeftToeBase
				{
					OFFSET 0.750401 -20.798306 25.135401
					CHANNELS 3 Xrotation Yrotation Zrotation
					JOINT mixamorig:LeftToe_End
					{
						OFFSET -0.000500 0.001200 19.917799
						CHANNELS 3 Xrotation Yrotation Zrotation
						End Site
						{
							OFFSET 0.000000 19.917805 0.000000
						}
					}
				}
			}
		}
	}
	JOINT mixamorig:RightUpLeg
	{
		OFFSET -18.162500 -13.585098 -0.041000
		CHANNELS 3 Xrotation Yrotation Zrotation
		JOINT mixamorig:RightLeg
		{
			OFFSET -0.595024 -80.945297 -3.631900
			CHANNELS 3 Xrotation Yrotation Zrotation
			JOINT mixamorig:RightFoot
			{
				OFFSET 0.595024 -83.218193 -6.561200
				CHANNELS 3 Xrotation Yrotation Zrotation
				JOINT mixamorig:RightToeBase
				{
					OFFSET -0.753601 -20.807106 25.115000
					CHANNELS 3 Xrotation Yrotation Zrotation
					JOINT mixamorig:RightToe_End
					{
						OFFSET 0.000299 0.001700 19.918200
						CHANNELS 3 Xrotation Yrotation Zrotation
						End Site
						{
							OFFSET 0.000000 19.918203 0.000000
						}
					}
				}
			}
		}
	}
}
MOTION
Frames: 6
Frame Time: 0.033333
0.389860 197.368774 -0.062787 -0.893085 1.580405 -4.939437 1.289226 -1.209695 2.597190 0.728743 0.264195 5.944688 0.710789 0.781493 5.851996 1.045308 -0.304693 -2.163986 1.584931 0.544179 -8.140494 -0.000000 -0.000000 -0.000000 -0.000000 -0.000000 -0.000000 -0.000000 -0.000000 -0.000000 3.582359 -13.764038 -5.044456 4.032786 3.514248 -83.678328 -0.000000 -14.506745 0.000022 -27.592511 3.698846 -9.416215 0.912577 8.769260 -15.831738 0.919073 3.991122 -33.400393 0.170573 1.488884 -12.264426 -0.000000 0.000000 -0.000003 18.491277 -0.461404 10.916083 1.284022 32.757618 -3.088952 2.117133 9.311163 -0.358606 0.000000 -0.000002 0.000000 0.339567 4.671347 -7.844269 0.387036 2.823574 -20.566219 0.034628 0.816836 -10.169811 -0.000001 0.000001 -0.000001 2.555823 11.673030 -26.909192 1.710653 3.886785 -40.215467 0.544860 1.835073 -19.344161 -0.000000 -0.000000 0.000001 5.576082 16.029163 -36.940641 1.378691 4.077640 -45.645632 0.486585 2.853394 -20.524734 0.000000 0.000000 0.000001 4.508131 3.324375 5.471577 -1.219630 0.655871 67.345426 0.000001 17.736789 -0.000020 -11.193157 -9.123239 10.139300 0.912586 -8.769265 15.831754 0.919075 -3.991139 33.400414 0.216468 -1.688829 15.898061 0.000000 -0.000000 0.000001 18.491277 0.461431 -10.916075 1.284057 -32.757611 3.088947 2.008684 -8.430480 1.114700 0.000000 0.000003 0.000000 0.339563 -4.671354 7.844284 0.387035 -2.823571 20.566258 -0.193126 -0.216345 13.843918 -0.000000 -0.000000 0.000001 2.555809 -11.673032 26.909192 1.710652 -3.886784 40.215457 -0.157955 0.035282 17.815350 -0.000001 0.000000 -0.000002 5.576086 -16.029160 36.940634 1.378689 -4.077637 45.645639 -0.727748 -0.247556 22.122750 -0.000001 -0.000000 0.000001 -21.762716 10.166835 16.261553 23.288778 9.557673 2.420415 -0.300627 3.253746 -9.014029 -0.432844 0.000000 -0.000001 -0.000000 -0.000002 0.000000 -1.844176 -5.000431 10.403065 9.674114 -5.099494 3.266125 -6.900251 0.890302 -8.324892 -0.538970 0.000002 0.000002 -0.000000 -0.000001 -0.000000 
1.772387 197.362564 1.027732 -1.218868 1.467019 -4.773821 1.336242 -1.180934 2.587175 0.754221 0.267594 5.910690 0.735980 0.779162 5.819143 1.044202 -0.311161 -2.155627 1.553467 0.503193 -8.044218 -0.000000 0.000000 -0.000000 -0.000000 0.000000 -0.000000 -0.000000 0.000000 -0.000000 3.548551 -13.800531 -5.210000 4.030386 3.104706 -83.368838 0.000004 -14.627434 0.000002 -26.591590 3.052486 -9.230765 0.914884 8.781048 -15.803294 0.913691 3.982618 -33.299453 0.170573 1.488859 -12.264146 -0.000000 -0.000001 0.000003 18.500044 -0.368217 10.959099 1.304101 32.808800 -3.089012 2.123772 9.338574 -0.353957 -0.000001 -0.000000 0.000000 0.339566 4.671347 -7.844268 0.387037 2.823574 -20.566217 0.034626 0.816836 -10.169814 -0.000000 0.000001 -0.000000 2.555233 11.694262 -26.784198 1.711077 3.887202 -40.221389 0.542652 1.830311 -19.291256 -0.000001 0.000000 0.000002 5.581444 16.066207 -36.800294 1.383901 4.083659 -45.724927 0.490235 2.861484 -20.612939 -0.000001 0.000001 0.000000 4.496324 3.407316 5.783624 -1.044618 1.086283 67.005331 -0.000004 17.722830 -0.000005 -10.716537 -8.061718 9.729669 0.898939 -8.732765 15.721933 0.905585 -3.969736 33.146754 0.212345 -1.674358 15.747636 -0.000001 -0.000000 -0.000001 18.249683 0.422566 -10.675595 1.385684 -32.542621 2.557849 1.979423 -8.245632 1.207979 0.000000 0.000001 -0.000000 0.337999 -4.676521 7.810302 0.382323 -2.810991 20.433100 -0.193706 -0.199711 13.684683 -0.000000 0.000001 -0.000004 2.520257 -11.627309 26.726194 1.683822 -3.860609 39.839438 -0.159593 0.053894 17.633561 -0.000001 -0.000000 0.000001 5.478064 -15.951231 36.651154 1.351296 -4.045718 45.226784 -0.726697 -0.220971 21.888029 -0.000002 0.000000 0.000000 -21.231978 10.353890 15.670802 23.999799 9.481623 2.538832 -1.246444 3.603147 -8.882909 -0.432288 0.000003 -0.000001 -0.000000 0.000002 -0.000000 -1.723757 -4.728429 9.786593 10.707650 -5.206441 3.168615 -7.739291 0.886125 -7.676913 -0.546283 0.000001 -0.000001 0.000000 0.000000 0.000000 
3.307020 197.335236 2.213618 -1.586278 1.286142 -4.579956 1.426879 -1.133680 2.563431 0.802853 0.272448 5.844484 0.784065 0.773241 5.755085 1.041886 -0.320647 -2.137977 1.489387 0.439410 -7.864280 -0.000001 0.000000 -0.000000 -0.000001 0.000000 -0.000000 -0.000001 0.000000 -0.000000 3.483981 -13.878935 -5.525344 4.003792 2.313723 -82.753138 0.000004 -14.889920 -0.000000 -24.814094 1.934502 -8.871427 0.919257 8.803608 -15.748946 0.903442 3.966323 -33.106395 0.170553 1.488810 -12.263635 -0.000001 0.000000 -0.000000 18.516388 -0.192064 11.040580 1.342113 32.905611 -3.089269 2.136406 9.390805 -0.345048 0.000001 -0.000002 0.000001 0.339566 4.671347 -7.844270 0.387036 2.823573 -20.566217 0.034628 0.816837 -10.169819 -0.000000 0.000000 -0.000000 2.553784 11.734919 -26.545230 1.711884 3.887982 -40.232700 0.538441 1.821206 -19.190111 -0.000001 -0.000000 0.000001 5.591136 16.137223 -36.531892 1.393891 4.095151 -45.876550 0.497235 2.876937 -20.781605 -0.000001 -0.000000 -0.000000 4.472638 3.558000 6.358384 -0.700075 1.879368 66.365219 0.000008 17.697411 -0.000038 -9.778327 -6.077117 8.881800 0.873680 -8.664191 15.516001 0.880522 -3.929427 32.670782 0.204712 -1.647187 15.465447 0.000002 -0.000001 -0.000002 17.797788 0.346313 -10.225016 1.578676 -32.141187 1.561632 1.924741 -7.898558 1.382943 -0.000002 0.000002 0.000000 0.335043 -4.686217 7.746512 0.373572 -2.787369 20.183376 -0.194665 -0.168497 13.385914 -0.000000 0.000000 -0.000000 2.454272 -11.541077 26.383086 1.633939 -3.811016 39.133893 -0.162511 0.088820 17.292528 0.000000 0.000000 -0.000002 5.296371 -15.803171 36.108690 1.300535 -3.985287 44.440991 -0.724428 -0.171117 21.447694 0.000000 0.000000 0.000000 -20.583192 10.508629 14.919157 24.720727 9.327113 2.760902 -2.249024 4.210955 -8.773749 -0.431238 -0.000000 -0.000002 0.000000 -0.000000 -0.000000 -1.583523 -4.316831 9.152588 11.803650 -5.393842 2.969322 -8.634111 0.873622 -6.912216 -0.561848 0.000005 0.000001 -0.000000 -0.000001 0.000000 
5.047841 197.294678 3.507868 -2.005947 0.976949 -4.347466 1.554516 -1.079889 2.537417 0.874078 0.277569 5.755580 0.854481 0.763337 5.669196 1.032195 -0.325738 -2.113370 1.403805 0.402585 -7.647439 -0.000000 -0.000000 0.000000 -0.000000 -0.000000 0.000000 -0.000000 -0.000000 0.000000 3.396366 -13.995138 -5.939065 3.896697 1.238267 -81.937681 0.000002 -15.217187 0.000006 -22.288746 0.441282 -8.323803 0.925665 8.837140 -15.668109 0.888317 3.942040 -32.819537 0.170535 1.488733 -12.262857 -0.000001 0.000000 -0.000002 18.539452 0.065376 11.160259 1.397778 33.047157 -3.089850 2.155054 9.468037 -0.331876 0.000000 -0.000000 0.000001 0.339567 4.671347 -7.844270 0.387036 2.823574 -20.566219 0.034627 0.816836 -10.169817 -0.000000 0.000000 0.000003 2.550863 11.795434 -26.189973 1.713092 3.889147 -40.249512 0.532210 1.807667 -19.039823 -0.000000 0.000000 -0.000001 5.604173 16.243197 -36.132698 1.408791 4.112179 -46.101854 0.507722 2.899856 -21.032222 0.000000 0.000000 0.000001 4.438612 3.761553 7.116557 -0.200897 2.960390 65.471413 -0.000002 17.625641 0.000037 -8.348731 -3.377959 7.532012 0.839201 -8.568395 15.229097 0.846154 -3.872891 32.007335 0.194293 -1.609256 15.072151 0.000001 -0.000000 0.000001 17.170985 0.230880 -9.596671 1.855705 -31.589833 0.173678 1.847808 -7.414560 1.627021 -0.000003 -0.000001 0.000000 0.330873 -4.699732 7.657672 0.361545 -2.754379 19.835376 -0.195732 -0.124988 12.969509 0.000001 -0.000001 0.000000 2.363858 -11.419930 25.905200 1.565446 -3.740875 38.150571 -0.166227 0.137527 16.817210 -0.000000 -0.000000 -0.000002 5.047981 -15.592823 35.354111 1.231181 -3.899901 43.345767 -0.720622 -0.101648 20.833906 -0.000001 -0.000001 -0.000000 -19.771372 10.673095 13.994343 25.419015 9.125802 3.056635 -3.312067 5.075988 -8.649427 -0.429658 -0.000002 -0.000000 -0.000000 0.000000 0.000000 -1.382510 -3.785763 8.451510 12.923799 -5.627045 2.682690 -9.560433 0.906106 -6.011308 -0.586534 0.000002 -0.000001 -0.000000 -0.000002 -0.000000 
7.017308 197.262390 4.917456 -2.463260 0.461983 -4.088394 1.693067 -1.058406 2.536105 0.958265 0.277656 5.663817 0.937734 0.746778 5.580836 1.007020 -0.304246 -2.083863 1.309974 0.523552 -7.492764 0.000000 0.000000 -0.000000 0.000000 0.000000 -0.000000 0.000000 0.000000 -0.000000 3.308170 -14.137895 -6.315926 3.671171 0.161454 -81.191005 -0.000003 -15.485717 -0.000023 -19.276537 -1.111358 -7.638040 0.933741 8.880225 -15.564345 0.869079 3.910759 -32.451298 0.170515 1.488636 -12.261876 -0.000000 -0.000000 -0.000000 18.565615 0.383906 11.309704 1.466813 33.222467 -3.090726 2.178710 9.566071 -0.315221 0.000002 0.000001 0.000000 0.339567 4.671349 -7.844270 0.387036 2.823573 -20.566215 0.034628 0.816837 -10.169819 -0.000001 0.000001 -0.000005 2.545737 11.873280 -25.733518 1.714638 3.890647 -40.271137 0.524270 1.790256 -18.846872 0.000000 -0.000000 -0.000002 5.618454 16.379926 -35.619525 1.428021 4.133954 -46.391167 0.521332 2.929218 -21.354023 0.000000 -0.000001 -0.000000 4.405103 3.971410 7.861132 0.354931 4.083982 64.444952 0.000004 17.433742 -0.000008 -6.543098 -0.426536 5.862926 0.801881 -8.461613 14.910315 0.808729 -3.809582 31.270003 0.183017 -1.567006 14.634983 0.000001 -0.000001 0.000001 16.478677 0.089809 -8.897914 2.171442 -30.983709 -1.368916 1.760972 -6.876307 1.898497 0.000000 -0.000001 0.000001 0.326173 -4.714738 7.558879 0.348407 -2.717622 19.448508 -0.196544 -0.076617 12.506667 -0.000001 0.000000 0.000001 2.265512 -11.284010 25.374554 1.490738 -3.661541 37.057676 -0.169880 0.191701 16.288826 -0.000001 0.000001 0.000000 4.778616 -15.353726 34.517529 1.156025 -3.803457 42.128552 -0.715528 -0.024481 20.151599 -0.000001 -0.000000 0.000001 -18.774523 10.916599 12.953513 26.029769 8.921685 3.336719 -4.421084 6.140282 -8.449939 -0.427645 -0.000005 -0.000001 -0.000000 0.000000 0.000000 -1.051671 -3.179254 7.632363 13.915226 -5.795731 2.368882 -10.431324 1.013675 -5.002772 -0.608579 -0.000001 -0.000001 -0.000000 0.000001 -0.000000 
9.189620 197.259903 6.450473 -2.918511 -0.319905 -3.829896 1.814865 -1.133819 2.575792 1.041700 0.261682 5.577414 1.020367 0.715144 5.497733 0.963893 -0.221587 -2.042624 1.191886 0.984898 -7.483611 -0.000000 0.000000 0.000000 -0.000000 0.000000 0.000000 -0.000000 0.000000 0.000000 3.240437 -14.318235 -6.528941 3.405942 -0.649820 -80.712277 -0.000006 -15.709531 -0.000012 -16.199344 -2.276223 -6.958040 0.943272 8.932357 -15.438866 0.846089 3.872777 -32.006140 0.170484 1.488521 -12.260677 0.000002 0.000001 0.000001 18.590172 0.744093 11.481505 1.545183 33.421048 -3.092061 2.206733 9.682299 -0.295520 -0.000002 0.000002 -0.000001 0.339569 4.671349 -7.844270 0.387036 2.823574 -20.566215 0.034626 0.816837 -10.169818 -0.000000 0.000000 0.000001 2.537424 11.967490 -25.181239 1.716514 3.892459 -40.297255 0.514744 1.769173 -18.613606 0.000000 0.000001 0.000000 5.631844 16.545881 -34.997906 1.451416 4.160151 -46.740921 0.538010 2.964609 -21.743065 0.000000 -0.000001 0.000001 4.388554 4.129121 8.401806 0.846580 4.955609 63.362634 0.000006 17.044764 -0.000026 -4.538461 2.518434 4.226913 0.767457 -8.360042 14.608038 0.773978 -3.749080 30.570492 0.172615 -1.526825 14.220006 0.000001 -0.000001 -0.000002 15.826277 -0.055850 -8.235274 2.470439 -30.402241 -2.833609 1.677448 -6.365185 2.155975 -0.000002 -0.000003 0.000000 0.321652 -4.728943 7.465048 0.336176 -2.682644 19.081308 -0.196951 -0.030690 12.067198 0.000003 -0.000001 -0.000002 2.174324 -11.153871 24.871613 1.421284 -3.584970 36.021017 -0.172893 0.243156 15.787349 -0.000001 0.000001 -0.000003 4.529739 -15.121906 33.725971 1.086642 -3.710502 40.974001 -0.709839 0.048691 19.504097 -0.000001 -0.000002 0.000000 -17.604331 11.288179 11.881597 26.485484 8.727655 3.502434 -5.551821 7.356294 -8.124307 -0.425444 0.000002 -0.000004 -0.000000 -0.000000 -0.000000 -0.556999 -2.509666 6.689088 14.614028 -5.786362 2.073222 -11.156440 1.160837 -3.943081 -0.613992 0.000002 0.000001 -0.000000 -0.000001 0.000000 
